<svg id="Layer_1" data-name="Layer 1" xmlns="http://www.w3.org/2000/svg" xmlns:xlink="http://www.w3.org/1999/xlink" viewBox="0 0 1024 1024"><defs><linearGradient id="linear-gradient" x1="206.29883" y1="908.11328" x2="206.29883" y2="907.11328" gradientTransform="matrix(1024, 0, 0, -1024, -210738, 929908)" gradientUnits="userSpaceOnUse"><stop offset="0" stop-color="#16bdca"/><stop offset="1" stop-color="#047481"/></linearGradient></defs><path id="Rectangle" d="M328.17731,0H695.82269C809.93707,0,851.31775,11.88168,893.03625,34.193A232.61328,232.61328,0,0,1,989.807,130.96375C1012.11835,172.68227,1024,214.06291,1024,328.17731V695.82269c0,114.11438-11.88165,155.49506-34.193,197.21356A232.61317,232.61317,0,0,1,893.03625,989.807C851.31775,1012.11835,809.93707,1024,695.82269,1024H328.17731c-114.1144,0-155.495-11.88165-197.21356-34.193A232.61328,232.61328,0,0,1,34.193,893.03625C11.88168,851.31775,0,809.93707,0,695.82269V328.17731c0-114.1144,11.88168-155.495,34.193-197.21356A232.6134,232.6134,0,0,1,130.96375,34.193C172.68227,11.88168,214.06291,0,328.17731,0Z" style="fill-rule:evenodd;fill:url(#linear-gradient)"/><path id="Path" d="M823.17023,559.87234a119.68087,119.68087,0,0,0-30.06385-207.92553A119.68085,119.68085,0,1,0,591.3085,230.89362a119.64889,119.64889,0,0,0-158.617,0A119.68085,119.68085,0,1,0,230.89362,351.94681a119.68085,119.68085,0,0,0-30.06383,207.92553,119.68085,119.68085,0,1,0,143.617,0,119.64894,119.64894,0,0,0,17.80852-175.05319,119.84063,119.84063,0,0,0,37.56382-22.56382,119.71276,119.71276,0,0,0,224.3617,0,119.84061,119.84061,0,0,0,37.56384,22.56382,119.64895,119.64895,0,0,0,17.80847,175.05319,119.52126,119.52126,0,0,0-45.82974,73.85108A119.68083,119.68083,0,1,0,773.25531,773.25531a119.649,119.649,0,0,0,49.91492-213.383Z" style="fill:none;stroke:#e5f9fa;stroke-linecap:round;stroke-linejoin:round;stroke-width:47.87234115600586px"/><line id="Path-2" data-name="Path" x1="272.6383" y1="775.29785" x2="272.6383" y2="871.04254" style="fill:none;stroke:#e5f9fa;stroke-linecap:round;stroke-linejoin:round;stroke-width:47.87234115600586px"/><path id="Path-3" data-name="Path" d="M543.72342,793.90424c-50.3298,14.90429-103.53192,39.28723-103.53192,77.1383" style="fill:none;stroke:#e5f9fa;stroke-linecap:round;stroke-linejoin:round;stroke-width:47.87234115600586px"/></svg>
